<?xml version="1.0" encoding="UTF-8" standalone="no"?>
<svg
   xmlns:dc="http://purl.org/dc/elements/1.1/"
   xmlns:cc="http://creativecommons.org/ns#"
   xmlns:rdf="http://www.w3.org/1999/02/22-rdf-syntax-ns#"
   xmlns:svg="http://www.w3.org/2000/svg"
   xmlns="http://www.w3.org/2000/svg"
   xmlns:sodipodi="http://sodipodi.sourceforge.net/DTD/sodipodi-0.dtd"
   xmlns:inkscape="http://www.inkscape.org/namespaces/inkscape"
   aria-hidden="true"
   focusable="false"
   data-prefix="fas"
   data-icon="boxes"
   class="svg-inline--fa fa-boxes fa-w-18"
   role="img"
   viewBox="0 0 576 512"
   version="1.1"
   id="svg4"
   sodipodi:docname="boxes-solidder.svg"
   inkscape:version="0.92.4 (unknown)">
  <metadata
     id="metadata10">
    <rdf:RDF>
      <cc:Work
         rdf:about="">
        <dc:format>image/svg+xml</dc:format>
        <dc:type
           rdf:resource="http://purl.org/dc/dcmitype/StillImage" />
      </cc:Work>
    </rdf:RDF>
  </metadata>
  <defs
     id="defs8" />
  <sodipodi:namedview
     pagecolor="#ffffff"
     bordercolor="#666666"
     borderopacity="1"
     objecttolerance="10"
     gridtolerance="10"
     guidetolerance="10"
     inkscape:pageopacity="0"
     inkscape:pageshadow="2"
     inkscape:window-width="3838"
     inkscape:window-height="2115"
     id="namedview6"
     showgrid="false"
     inkscape:zoom="20.85965"
     inkscape:cx="371.2441"
     inkscape:cy="0.8117299"
     inkscape:window-x="0"
     inkscape:window-y="43"
     inkscape:window-maximized="0"
     inkscape:current-layer="svg4" />
  <path
     d="m 560.05383,288.03774 h -224 c -8.8,0 -16,7.2 -16,16 v 192 c 0,8.8 7.2,16 16,16 h 224 c 8.8,0 16,-7.2 16,-16 v -192 c 0,-8.8 -7.2,-16 -16,-16 z m -384,-64 h 224 c 8.8,0 16,-7.2 16,-16 V 16.037747 c 0,-8.8000003 -7.2,-16.00000226 -16,-16.00000226 -224,0 0,0 -224,0 -8.8,0 -16,7.20000196 -16,16.00000226 V 208.03774 c 0,8.8 7.2,16 16,16 z m 64,64 H 16.053839 c -8.7999998,0 -15.99999979,7.2 -15.99999979,16 v 192 c 0,8.8 7.19999999,16 15.99999979,16 H 240.05383 c 8.8,0 16,-7.2 16,-16 v -192 c 0,-8.8 -7.2,-16 -16,-16 z"
     id="path2"
     inkscape:connector-curvature="0"
     style="fill:currentColor"
     sodipodi:nodetypes="ccsssssscssssccssssccssssss" />
</svg>
