<?xml version="1.0" standalone="no"?>
<!DOCTYPE svg PUBLIC "-//W3C//DTD SVG 20010904//EN"
 "http://www.w3.org/TR/2001/REC-SVG-20010904/DTD/svg10.dtd">
<svg version="1.0" xmlns="http://www.w3.org/2000/svg"
 width="512.000000pt" height="512.000000pt" viewBox="0 0 512.000000 512.000000"
 preserveAspectRatio="xMidYMid meet">
<metadata>
Created by potrace 1.15, written by Peter Selinger 2001-2017
</metadata>
<g transform="translate(0.000000,512.000000) scale(0.100000,-0.100000)"
fill="#000000" stroke="none">
<path d="M1960 4154 c-14 -2 -52 -9 -85 -15 -212 -36 -425 -149 -585 -309
-156 -157 -258 -344 -306 -565 -17 -76 -31 -293 -21 -319 5 -14 32 -3 160 61
l154 76 7 70 c9 96 58 237 113 325 129 207 361 346 603 359 288 16 468 -103
510 -337 28 -157 -43 -400 -159 -548 -23 -28 -41 -54 -41 -57 0 -3 109 -59
242 -126 223 -112 243 -120 255 -103 60 82 363 596 363 615 0 14 -13 63 -29
110 -58 173 -144 312 -271 439 -157 156 -343 258 -565 306 -68 15 -295 27
-345 18z"/>
<path d="M3456 3398 c-14 -13 -138 -207 -275 -433 l-251 -409 25 -26 c13 -14
36 -52 52 -85 24 -53 28 -76 33 -186 l5 -127 235 384 c129 211 237 380 241
376 4 -4 82 -281 175 -617 189 -686 191 -702 143 -805 -31 -67 -93 -130 -157
-161 -39 -19 -67 -24 -170 -27 -109 -4 -303 8 -429 25 l-43 6 0 -160 0 -160
48 -7 c274 -36 654 -32 937 10 501 74 816 247 769 422 -13 46 -1176 1949
-1210 1980 -17 15 -38 22 -64 22 -26 0 -47 -7 -64 -22z"/>
<path d="M1530 3026 c-87 -33 -1118 -557 -1143 -580 -15 -14 -37 -45 -47 -68
-19 -41 -20 -72 -20 -692 0 -480 3 -659 12 -689 25 -84 45 -96 646 -396 547
-273 564 -281 622 -281 58 0 75 8 622 281 601 300 621 312 646 396 9 30 12
210 12 690 l0 649 -25 51 c-15 30 -41 61 -63 76 -20 14 -282 148 -582 297
-584 292 -599 297 -680 266z m449 -506 c199 -99 361 -182 361 -185 0 -3 -166
-88 -370 -190 l-370 -185 -370 185 c-204 102 -370 188 -370 191 0 9 723 363
742 364 9 0 178 -81 377 -180z m-934 -637 l395 -198 0 -477 0 -478 -400 200
-400 200 0 475 c0 261 2 475 5 475 3 0 183 -89 400 -197z"/>
</g>
</svg>
